<svg id="SvgjsSvg1000" xmlns="http://www.w3.org/2000/svg" version="1.1" xmlns:xlink="http://www.w3.org/1999/xlink" xmlns:svgjs="http://svgjs.com/svgjs" width="139" height="140"><defs id="SvgjsDefs1001"><clipPath id="SvgjsClipPath1009"><path id="SvgjsPath1008" d="M349.5 3585C387.884 3585 419 3616.34 419 3655C419 3693.66 387.884 3725 349.5 3725C311.116 3725 280 3693.66 280 3655C280 3616.34 311.116 3585 349.5 3585Z " fill="#ffffff"></path></clipPath></defs><path id="SvgjsPath1007" d="M349.5 3585C387.884 3585 419 3616.34 419 3655C419 3693.66 387.884 3725 349.5 3725C311.116 3725 280 3693.66 280 3655C280 3616.34 311.116 3585 349.5 3585Z " fill-opacity="0" fill="#ffffff" stroke-dasharray="0" stroke-linejoin="miter" stroke-linecap="butt" stroke-opacity="1" stroke="#3a4149" stroke-miterlimit="50" stroke-width="16" clip-path="url(&quot;#SvgjsClipPath1009&quot;)" transform="matrix(1,0,0,1,-280,-3585)"></path></svg>